<svg
  xmlns="http://www.w3.org/2000/svg"
  viewBox="0 0 128 128"
>
  <path
    fill-rule="evenodd"
    clip-rule="evenodd"
    d="M64 20.0081C39.6995 20.0081 20 39.7075 20 64.0081C20 88.3086 39.6995 108.008 64 108.008C88.3005 108.008 108 88.3086 108 64.0081C108 39.7075 88.3005 20.0081 64 20.0081ZM16 64.0081C16 37.4984 37.4903 16.0081 64 16.0081C90.5097 16.0081 112 37.4984 112 64.0081C112 90.5177 90.5097 112.008 64 112.008C37.4903 112.008 16 90.5177 16 64.0081ZM64 36.0081C48.536 36.0081 36 48.5441 36 64.0081C36 79.472 48.536 92.0081 64 92.0081C79.464 92.0081 92 79.472 92 64.0081C92 48.5441 79.464 36.0081 64 36.0081ZM32 64.0081C32 46.3349 46.3269 32.0081 64 32.0081C81.6731 32.0081 96 46.3349 96 64.0081C96 81.6812 81.6731 96.0081 64 96.0081C46.3269 96.0081 32 81.6812 32 64.0081ZM52 64.0081C52 57.3806 57.3726 52.0081 64 52.0081C70.6274 52.0081 76 57.3806 76 64.0081C76 70.6355 70.6274 76.0081 64 76.0081C57.3726 76.0081 52 70.6355 52 64.0081ZM64 48.0081C55.1634 48.0081 48 55.1715 48 64.0081C48 72.8446 55.1634 80.0081 64 80.0081C72.8366 80.0081 80 72.8446 80 64.0081C80 55.1715 72.8366 48.0081 64 48.0081Z"
    fill="#127ac9"></path>
</svg>